<?xml version="1.0" encoding="utf-8"?>
<!-- Generator: Adobe Illustrator 22.1.0, SVG Export Plug-In . SVG Version: 6.00 Build 0)  -->
<svg version="1.1" id="Layer_1" xmlns="http://www.w3.org/2000/svg" xmlns:xlink="http://www.w3.org/1999/xlink" x="0px" y="0px"
	 viewBox="0 0 22 22" style="enable-background:new 0 0 22 22;" xml:space="preserve">
<style type="text/css">
	.st0{fill:#D1D1D1;}
	.st1{fill:#A0A0A0;}
	.st2{fill:#727272;}
	.st3{fill:#333333;}
	.st4{fill:#FFFFFF;}
	.st5{fill:#CCCCCC;}
	.st6{fill:#595959;}
	.st7{fill:#7F7F7F;}
	.st8{fill:#A5A5A5;}
	.st9{fill:none;stroke:#EEEEEE;stroke-miterlimit:10;}
	.st10{fill:#333333;stroke:#EEEEEE;stroke-miterlimit:10;}
</style>
<rect x="8" y="10" class="st3" width="8" height="2"/>
<rect x="-6" y="10" transform="matrix(-1.836970e-16 1 -1 -1.836970e-16 14 8)" class="st3" width="18" height="2"/>
<rect x="10" y="10" transform="matrix(-1.836970e-16 1 -1 -1.836970e-16 30 -8)" class="st5" width="18" height="2"/>
<rect x="7.1" y="7.9" transform="matrix(0.7071 -0.7071 0.7071 0.7071 -3.6066 9.0502)" class="st3" width="4" height="2"/>
<rect x="8.1" y="11.1" transform="matrix(0.7071 -0.7071 0.7071 0.7071 -6.6067 10.2932)" class="st3" width="2" height="4"/>
<rect x="6" y="10" transform="matrix(0.7071 -0.7071 0.7071 0.7071 -5.7279 8.1716)" class="st3" width="2" height="2"/>
</svg>
