<?xml version="1.0" encoding="utf-8"?>
<!-- Generator: Adobe Illustrator 22.1.0, SVG Export Plug-In . SVG Version: 6.00 Build 0)  -->
<svg version="1.1" id="Layer_1" xmlns="http://www.w3.org/2000/svg" xmlns:xlink="http://www.w3.org/1999/xlink" x="0px" y="0px"
	 viewBox="0 0 22 22" style="enable-background:new 0 0 22 22;" xml:space="preserve">
<style type="text/css">
	.st0{fill:#D1D1D1;}
	.st1{fill:#A0A0A0;}
	.st2{fill:#727272;}
	.st3{fill:#333333;}
	.st4{fill:#FFFFFF;}
	.st5{fill:#CCCCCC;}
	.st6{fill:#595959;}
	.st7{fill:#7F7F7F;}
	.st8{fill:#A5A5A5;}
	.st9{fill:none;stroke:#EEEEEE;stroke-miterlimit:10;}
	.st10{fill:#333333;stroke:#EEEEEE;stroke-miterlimit:10;}
</style>
<rect x="10" y="10" transform="matrix(6.123234e-17 -1 1 6.123234e-17 8 30)" class="st3" width="18" height="2"/>
<rect x="6" y="10" transform="matrix(6.123234e-17 -1 1 6.123234e-17 4 26)" class="st6" width="18" height="2"/>
<rect x="2" y="10" transform="matrix(6.123234e-17 -1 1 6.123234e-17 5.580553e-06 22)" class="st7" width="18" height="2"/>
<rect x="-2" y="10" transform="matrix(6.123234e-17 -1 1 6.123234e-17 -4 18)" class="st8" width="18" height="2"/>
<rect x="-6" y="10" transform="matrix(6.123234e-17 -1 1 6.123234e-17 -8 14)" class="st5" width="18" height="2"/>
</svg>
