<?xml version="1.0" encoding="utf-8"?>
<!-- Generator: Adobe Illustrator 22.1.0, SVG Export Plug-In . SVG Version: 6.00 Build 0)  -->
<svg version="1.1" id="Layer_1" xmlns="http://www.w3.org/2000/svg" xmlns:xlink="http://www.w3.org/1999/xlink" x="0px" y="0px"
	 viewBox="0 0 22 22" style="enable-background:new 0 0 22 22;" xml:space="preserve">
<style type="text/css">
	.st0{fill:#D1D1D1;}
	.st1{fill:#A0A0A0;}
	.st2{fill:#727272;}
	.st3{fill:#333333;}
	.st4{fill:#FFFFFF;}
	.st5{fill:#CCCCCC;}
	.st6{fill:#595959;}
	.st7{fill:#7F7F7F;}
	.st8{fill:#A5A5A5;}
	.st9{fill:none;stroke:#EEEEEE;stroke-miterlimit:10;}
	.st10{fill:#333333;stroke:#EEEEEE;stroke-miterlimit:10;}
</style>
<rect x="2" y="2" transform="matrix(-1 -1.224647e-16 1.224647e-16 -1 22 6)" class="st5" width="18" height="2"/>
<rect x="11" y="6" transform="matrix(-1 -1.224647e-16 1.224647e-16 -1 31 14)" class="st5" width="9" height="2"/>
<rect x="11" y="10" transform="matrix(-1 -1.224647e-16 1.224647e-16 -1 31 22)" class="st5" width="9" height="2"/>
<rect x="11" y="14" transform="matrix(-1 -1.224647e-16 1.224647e-16 -1 31 30)" class="st5" width="9" height="2"/>
<rect x="2" y="18" transform="matrix(-1 -1.224647e-16 1.224647e-16 -1 22 38)" class="st5" width="18" height="2"/>
<path class="st3" d="M2.5,6h6C8.8,6,9,6.2,9,6.5v9C9,15.8,8.8,16,8.5,16h-6C2.2,16,2,15.8,2,15.5v-9C2,6.2,2.2,6,2.5,6z"/>
</svg>
