<?xml version="1.0" encoding="utf-8"?>
<!-- Generator: Adobe Illustrator 22.1.0, SVG Export Plug-In . SVG Version: 6.00 Build 0)  -->
<svg version="1.1" id="Layer_1" xmlns="http://www.w3.org/2000/svg" xmlns:xlink="http://www.w3.org/1999/xlink" x="0px" y="0px"
	 viewBox="0 0 22 22" style="enable-background:new 0 0 22 22;" xml:space="preserve">
<style type="text/css">
	.st0{fill:#D1D1D1;}
	.st1{fill:#A0A0A0;}
	.st2{fill:#727272;}
	.st3{fill:#333333;}
	.st4{fill:#FFFFFF;}
	.st5{fill:#CCCCCC;}
	.st6{fill:#595959;}
	.st7{fill:#7F7F7F;}
	.st8{fill:#A5A5A5;}
	.st9{fill:none;stroke:#EEEEEE;stroke-miterlimit:10;}
	.st10{fill:#333333;stroke:#EEEEEE;stroke-miterlimit:10;}
</style>
<g>
	<rect x="12.7" y="7.5" transform="matrix(-0.7071 -0.7071 0.7071 -0.7071 23.2949 26.6491)" class="st5" width="9" height="2"/>
	<rect x="12.7" y="12.5" transform="matrix(-0.7071 0.7071 -0.7071 -0.7071 38.8513 10.9073)" class="st5" width="9" height="2"/>
	<rect x="6.7" y="7.5" transform="matrix(-0.7071 -0.7071 0.7071 -0.7071 13.0523 22.4064)" class="st3" width="9" height="2"/>
	<rect x="6.7" y="12.5" transform="matrix(-0.7071 0.7071 -0.7071 -0.7071 28.6086 15.1499)" class="st3" width="9" height="2"/>
	<rect x="0.7" y="7.5" transform="matrix(-0.7071 -0.7071 0.7071 -0.7071 2.8096 18.1638)" class="st3" width="9" height="2"/>
	<rect x="0.7" y="12.5" transform="matrix(-0.7071 0.7071 -0.7071 -0.7071 18.366 19.3926)" class="st3" width="9" height="2"/>
</g>
</svg>
